<?xml version="1.0" encoding="UTF-8" standalone="no"?>
<!DOCTYPE svg PUBLIC "-//W3C//DTD SVG 1.1//EN"
 "http://www.w3.org/Graphics/SVG/1.1/DTD/svg11.dtd">
<!-- Generated by graphviz version 2.38.0 (20140413.2041)
 -->
<!-- Title: models_diagram Pages: 1 -->
<svg width="588pt" height="228pt"
 viewBox="0.00 0.00 587.50 228.00" xmlns="http://www.w3.org/2000/svg" xmlns:xlink="http://www.w3.org/1999/xlink">
<g id="graph0" class="graph" transform="scale(1 1) rotate(0) translate(4 224)">
<title>models_diagram</title>
<polygon fill="none" stroke="none" points="-4,4 -4,-224 583.5,-224 583.5,4 -4,4"/>
<!-- Runn -->
<g id="node1" class="node"><title>Runn</title>
<path fill="none" stroke="black" d="M12,-0.5C12,-0.5 174,-0.5 174,-0.5 180,-0.5 186,-6.5 186,-12.5 186,-12.5 186,-79.5 186,-79.5 186,-85.5 180,-91.5 174,-91.5 174,-91.5 12,-91.5 12,-91.5 6,-91.5 0,-85.5 0,-79.5 0,-79.5 0,-12.5 0,-12.5 0,-6.5 6,-0.5 12,-0.5"/>
<text text-anchor="middle" x="93" y="-76.3" font-family="Times,serif" font-size="14.00">Runn</text>
<polyline fill="none" stroke="black" points="0,-68.5 186,-68.5 "/>
<text text-anchor="start" x="8" y="-53.3" font-family="Times,serif" font-size="14.00">ident :character varying</text>
<text text-anchor="start" x="8" y="-38.3" font-family="Times,serif" font-size="14.00">size :character varying</text>
<text text-anchor="start" x="8" y="-23.3" font-family="Times,serif" font-size="14.00">animal_type :character varying</text>
<text text-anchor="start" x="8" y="-8.3" font-family="Times,serif" font-size="14.00">amenities :character varying</text>
</g>
<!-- Patient -->
<g id="node2" class="node"><title>Patient</title>
<path fill="none" stroke="black" d="M217,-0.5C217,-0.5 351,-0.5 351,-0.5 357,-0.5 363,-6.5 363,-12.5 363,-12.5 363,-79.5 363,-79.5 363,-85.5 357,-91.5 351,-91.5 351,-91.5 217,-91.5 217,-91.5 211,-91.5 205,-85.5 205,-79.5 205,-79.5 205,-12.5 205,-12.5 205,-6.5 211,-0.5 217,-0.5"/>
<text text-anchor="middle" x="284" y="-76.3" font-family="Times,serif" font-size="14.00">Patient</text>
<polyline fill="none" stroke="black" points="205,-68.5 363,-68.5 "/>
<text text-anchor="start" x="213" y="-53.3" font-family="Times,serif" font-size="14.00">name :character varying</text>
<text text-anchor="start" x="213" y="-38.3" font-family="Times,serif" font-size="14.00">species :character varying</text>
<text text-anchor="start" x="213" y="-23.3" font-family="Times,serif" font-size="14.00">breed :character varying</text>
<text text-anchor="start" x="213" y="-8.3" font-family="Times,serif" font-size="14.00">weight :double precision</text>
</g>
<!-- Ward -->
<g id="node3" class="node"><title>Ward</title>
<path fill="none" stroke="black" d="M32,-151C32,-151 154,-151 154,-151 160,-151 166,-157 166,-163 166,-163 166,-185 166,-185 166,-191 160,-197 154,-197 154,-197 32,-197 32,-197 26,-197 20,-191 20,-185 20,-185 20,-163 20,-163 20,-157 26,-151 32,-151"/>
<text text-anchor="middle" x="93" y="-181.8" font-family="Times,serif" font-size="14.00">Ward</text>
<polyline fill="none" stroke="black" points="20,-174 166,-174 "/>
<text text-anchor="start" x="28" y="-158.8" font-family="Times,serif" font-size="14.00">ident :character varying</text>
</g>
<!-- Ward&#45;&gt;Runn -->
<g id="edge1" class="edge"><title>Ward&#45;&gt;Runn</title>
<path fill="none" stroke="#3fa9fd" d="M93,-142.68C93,-130.393 93,-115.813 93,-101.786"/>
<ellipse fill="none" stroke="#3fa9fd" cx="93" cy="-146.764" rx="4" ry="4"/>
<polygon fill="#3fa9fd" stroke="#3fa9fd" points="93.0001,-101.71 97.5,-91.7104 93,-96.7104 93,-91.7104 93,-91.7104 93,-91.7104 93,-96.7104 88.5,-91.7104 93.0001,-101.71 93.0001,-101.71"/>
</g>
<!-- User -->
<g id="node4" class="node"><title>User</title>
<path fill="none" stroke="black" d="M414.5,-136C414.5,-136 567.5,-136 567.5,-136 573.5,-136 579.5,-142 579.5,-148 579.5,-148 579.5,-200 579.5,-200 579.5,-206 573.5,-212 567.5,-212 567.5,-212 414.5,-212 414.5,-212 408.5,-212 402.5,-206 402.5,-200 402.5,-200 402.5,-148 402.5,-148 402.5,-142 408.5,-136 414.5,-136"/>
<text text-anchor="middle" x="491" y="-196.8" font-family="Times,serif" font-size="14.00">User</text>
<polyline fill="none" stroke="black" points="402.5,-189 579.5,-189 "/>
<text text-anchor="start" x="410.5" y="-173.8" font-family="Times,serif" font-size="14.00">email :character varying</text>
<text text-anchor="start" x="410.5" y="-158.8" font-family="Times,serif" font-size="14.00">first_name :character varying</text>
<text text-anchor="start" x="410.5" y="-143.8" font-family="Times,serif" font-size="14.00">last_name :character varying</text>
</g>
<!-- Owner -->
<g id="node5" class="node"><title>Owner</title>
<path fill="none" stroke="black" d="M196,-128.5C196,-128.5 372,-128.5 372,-128.5 378,-128.5 384,-134.5 384,-140.5 384,-140.5 384,-207.5 384,-207.5 384,-213.5 378,-219.5 372,-219.5 372,-219.5 196,-219.5 196,-219.5 190,-219.5 184,-213.5 184,-207.5 184,-207.5 184,-140.5 184,-140.5 184,-134.5 190,-128.5 196,-128.5"/>
<text text-anchor="middle" x="284" y="-204.3" font-family="Times,serif" font-size="14.00">Owner</text>
<polyline fill="none" stroke="black" points="184,-196.5 384,-196.5 "/>
<text text-anchor="start" x="192" y="-181.3" font-family="Times,serif" font-size="14.00">first_name :character varying</text>
<text text-anchor="start" x="192" y="-166.3" font-family="Times,serif" font-size="14.00">last_name :character varying</text>
<text text-anchor="start" x="192" y="-151.3" font-family="Times,serif" font-size="14.00">email :character varying</text>
<text text-anchor="start" x="192" y="-136.3" font-family="Times,serif" font-size="14.00">phone_number :character varying</text>
</g>
<!-- Owner&#45;&gt;Patient -->
<g id="edge2" class="edge"><title>Owner&#45;&gt;Patient</title>
<path fill="none" stroke="#cff82f" d="M284,-120.022C284,-113.97 284,-107.791 284,-101.716"/>
<ellipse fill="none" stroke="#cff82f" cx="284" cy="-124.222" rx="4" ry="4"/>
<polygon fill="#cff82f" stroke="#cff82f" points="284,-101.633 288.5,-91.6334 284,-96.6335 284,-91.6335 284,-91.6335 284,-91.6335 284,-96.6335 279.5,-91.6335 284,-101.633 284,-101.633"/>
</g>
</g>
</svg>
