<?xml version="1.0" encoding="UTF-8" standalone="no"?>
<!DOCTYPE svg PUBLIC "-//W3C//DTD SVG 1.1//EN"
 "http://www.w3.org/Graphics/SVG/1.1/DTD/svg11.dtd">
<!-- Generated by graphviz version 2.38.0 (20140413.2041)
 -->
<!-- Title: models_diagram Pages: 1 -->
<svg width="208pt" height="228pt"
 viewBox="0.00 0.00 208.00 228.00" xmlns="http://www.w3.org/2000/svg" xmlns:xlink="http://www.w3.org/1999/xlink">
<g id="graph0" class="graph" transform="scale(1 1) rotate(0) translate(4 224)">
<title>models_diagram</title>
<polygon fill="none" stroke="none" points="-4,4 -4,-224 204,-224 204,4 -4,4"/>
<!-- Patient -->
<g id="node1" class="node"><title>Patient</title>
<path fill="none" stroke="black" d="M33,-0.5C33,-0.5 167,-0.5 167,-0.5 173,-0.5 179,-6.5 179,-12.5 179,-12.5 179,-79.5 179,-79.5 179,-85.5 173,-91.5 167,-91.5 167,-91.5 33,-91.5 33,-91.5 27,-91.5 21,-85.5 21,-79.5 21,-79.5 21,-12.5 21,-12.5 21,-6.5 27,-0.5 33,-0.5"/>
<text text-anchor="middle" x="100" y="-76.3" font-family="Times,serif" font-size="14.00">Patient</text>
<polyline fill="none" stroke="black" points="21,-68.5 179,-68.5 "/>
<text text-anchor="start" x="29" y="-53.3" font-family="Times,serif" font-size="14.00">name :character varying</text>
<text text-anchor="start" x="29" y="-38.3" font-family="Times,serif" font-size="14.00">species :character varying</text>
<text text-anchor="start" x="29" y="-23.3" font-family="Times,serif" font-size="14.00">breed :character varying</text>
<text text-anchor="start" x="29" y="-8.3" font-family="Times,serif" font-size="14.00">weight :double precision</text>
</g>
<!-- Owner -->
<g id="node2" class="node"><title>Owner</title>
<path fill="none" stroke="black" d="M12,-128.5C12,-128.5 188,-128.5 188,-128.5 194,-128.5 200,-134.5 200,-140.5 200,-140.5 200,-207.5 200,-207.5 200,-213.5 194,-219.5 188,-219.5 188,-219.5 12,-219.5 12,-219.5 6,-219.5 0,-213.5 0,-207.5 0,-207.5 0,-140.5 0,-140.5 0,-134.5 6,-128.5 12,-128.5"/>
<text text-anchor="middle" x="100" y="-204.3" font-family="Times,serif" font-size="14.00">Owner</text>
<polyline fill="none" stroke="black" points="0,-196.5 200,-196.5 "/>
<text text-anchor="start" x="8" y="-181.3" font-family="Times,serif" font-size="14.00">first_name :character varying</text>
<text text-anchor="start" x="8" y="-166.3" font-family="Times,serif" font-size="14.00">last_name :character varying</text>
<text text-anchor="start" x="8" y="-151.3" font-family="Times,serif" font-size="14.00">email :character varying</text>
<text text-anchor="start" x="8" y="-136.3" font-family="Times,serif" font-size="14.00">phone_number :character varying</text>
</g>
<!-- Owner&#45;&gt;Patient -->
<g id="edge1" class="edge"><title>Owner&#45;&gt;Patient</title>
<path fill="none" stroke="#414561" d="M100,-120.022C100,-113.97 100,-107.791 100,-101.716"/>
<ellipse fill="none" stroke="#414561" cx="100" cy="-124.222" rx="4" ry="4"/>
<polygon fill="#414561" stroke="#414561" points="100,-101.633 104.5,-91.6334 100,-96.6335 100,-91.6335 100,-91.6335 100,-91.6335 100,-96.6335 95.5,-91.6335 100,-101.633 100,-101.633"/>
</g>
</g>
</svg>
