<?xml version="1.0" encoding="UTF-8" standalone="no"?>
<!DOCTYPE svg PUBLIC "-//W3C//DTD SVG 1.1//EN"
 "http://www.w3.org/Graphics/SVG/1.1/DTD/svg11.dtd">
<!-- Generated by graphviz version 2.38.0 (20140413.2041)
 -->
<!-- Title: models_diagram Pages: 1 -->
<svg width="888pt" height="258pt"
 viewBox="0.00 0.00 887.50 258.00" xmlns="http://www.w3.org/2000/svg" xmlns:xlink="http://www.w3.org/1999/xlink">
<g id="graph0" class="graph" transform="scale(1 1) rotate(0) translate(4 254)">
<title>models_diagram</title>
<polygon fill="none" stroke="none" points="-4,4 -4,-254 883.5,-254 883.5,4 -4,4"/>
<!-- Runn -->
<g id="node1" class="node"><title>Runn</title>
<path fill="none" stroke="black" d="M12,-0.5C12,-0.5 174,-0.5 174,-0.5 180,-0.5 186,-6.5 186,-12.5 186,-12.5 186,-79.5 186,-79.5 186,-85.5 180,-91.5 174,-91.5 174,-91.5 12,-91.5 12,-91.5 6,-91.5 0,-85.5 0,-79.5 0,-79.5 0,-12.5 0,-12.5 0,-6.5 6,-0.5 12,-0.5"/>
<text text-anchor="middle" x="93" y="-76.3" font-family="Times,serif" font-size="14.00">Runn</text>
<polyline fill="none" stroke="black" points="0,-68.5 186,-68.5 "/>
<text text-anchor="start" x="8" y="-53.3" font-family="Times,serif" font-size="14.00">ident :character varying</text>
<text text-anchor="start" x="8" y="-38.3" font-family="Times,serif" font-size="14.00">size :character varying</text>
<text text-anchor="start" x="8" y="-23.3" font-family="Times,serif" font-size="14.00">animal_type :character varying</text>
<text text-anchor="start" x="8" y="-8.3" font-family="Times,serif" font-size="14.00">amenities :character varying</text>
</g>
<!-- Stay -->
<g id="node2" class="node"><title>Stay</title>
<path fill="none" stroke="black" d="M196,-128.5C196,-128.5 454,-128.5 454,-128.5 460,-128.5 466,-134.5 466,-140.5 466,-140.5 466,-237.5 466,-237.5 466,-243.5 460,-249.5 454,-249.5 454,-249.5 196,-249.5 196,-249.5 190,-249.5 184,-243.5 184,-237.5 184,-237.5 184,-140.5 184,-140.5 184,-134.5 190,-128.5 196,-128.5"/>
<text text-anchor="middle" x="325" y="-234.3" font-family="Times,serif" font-size="14.00">Stay</text>
<polyline fill="none" stroke="black" points="184,-226.5 466,-226.5 "/>
<text text-anchor="start" x="192" y="-211.3" font-family="Times,serif" font-size="14.00">is_current :boolean</text>
<text text-anchor="start" x="192" y="-196.3" font-family="Times,serif" font-size="14.00">check_in_dt :timestamp without time zone</text>
<text text-anchor="start" x="192" y="-181.3" font-family="Times,serif" font-size="14.00">check_out_dt :timestamp without time zone</text>
<text text-anchor="start" x="192" y="-166.3" font-family="Times,serif" font-size="14.00">sch_check_in_dt :timestamp without time zone</text>
<text text-anchor="start" x="192" y="-151.3" font-family="Times,serif" font-size="14.00">sch_check_out_dt :timestamp without time zone</text>
<text text-anchor="start" x="192" y="-136.3" font-family="Times,serif" font-size="14.00">remarks :text</text>
</g>
<!-- Patient -->
<g id="node3" class="node"><title>Patient</title>
<path fill="none" stroke="black" d="M517,-0.5C517,-0.5 651,-0.5 651,-0.5 657,-0.5 663,-6.5 663,-12.5 663,-12.5 663,-79.5 663,-79.5 663,-85.5 657,-91.5 651,-91.5 651,-91.5 517,-91.5 517,-91.5 511,-91.5 505,-85.5 505,-79.5 505,-79.5 505,-12.5 505,-12.5 505,-6.5 511,-0.5 517,-0.5"/>
<text text-anchor="middle" x="584" y="-76.3" font-family="Times,serif" font-size="14.00">Patient</text>
<polyline fill="none" stroke="black" points="505,-68.5 663,-68.5 "/>
<text text-anchor="start" x="513" y="-53.3" font-family="Times,serif" font-size="14.00">name :character varying</text>
<text text-anchor="start" x="513" y="-38.3" font-family="Times,serif" font-size="14.00">species :character varying</text>
<text text-anchor="start" x="513" y="-23.3" font-family="Times,serif" font-size="14.00">breed :character varying</text>
<text text-anchor="start" x="513" y="-8.3" font-family="Times,serif" font-size="14.00">weight :double precision</text>
</g>
<!-- Ward -->
<g id="node4" class="node"><title>Ward</title>
<path fill="none" stroke="black" d="M32,-166C32,-166 154,-166 154,-166 160,-166 166,-172 166,-178 166,-178 166,-200 166,-200 166,-206 160,-212 154,-212 154,-212 32,-212 32,-212 26,-212 20,-206 20,-200 20,-200 20,-178 20,-178 20,-172 26,-166 32,-166"/>
<text text-anchor="middle" x="93" y="-196.8" font-family="Times,serif" font-size="14.00">Ward</text>
<polyline fill="none" stroke="black" points="20,-189 166,-189 "/>
<text text-anchor="start" x="28" y="-173.8" font-family="Times,serif" font-size="14.00">ident :character varying</text>
</g>
<!-- Ward&#45;&gt;Runn -->
<g id="edge1" class="edge"><title>Ward&#45;&gt;Runn</title>
<path fill="none" stroke="#4f0af4" d="M93,-157.838C93,-141.493 93,-120.787 93,-101.708"/>
<ellipse fill="none" stroke="#4f0af4" cx="93" cy="-161.969" rx="4" ry="4"/>
<polygon fill="#4f0af4" stroke="#4f0af4" points="93.0001,-101.613 97.5,-91.6132 93,-96.6133 93,-91.6133 93,-91.6133 93,-91.6133 93,-96.6133 88.5,-91.6133 93.0001,-101.613 93.0001,-101.613"/>
</g>
<!-- User -->
<g id="node5" class="node"><title>User</title>
<path fill="none" stroke="black" d="M714.5,-151C714.5,-151 867.5,-151 867.5,-151 873.5,-151 879.5,-157 879.5,-163 879.5,-163 879.5,-215 879.5,-215 879.5,-221 873.5,-227 867.5,-227 867.5,-227 714.5,-227 714.5,-227 708.5,-227 702.5,-221 702.5,-215 702.5,-215 702.5,-163 702.5,-163 702.5,-157 708.5,-151 714.5,-151"/>
<text text-anchor="middle" x="791" y="-211.8" font-family="Times,serif" font-size="14.00">User</text>
<polyline fill="none" stroke="black" points="702.5,-204 879.5,-204 "/>
<text text-anchor="start" x="710.5" y="-188.8" font-family="Times,serif" font-size="14.00">email :character varying</text>
<text text-anchor="start" x="710.5" y="-173.8" font-family="Times,serif" font-size="14.00">first_name :character varying</text>
<text text-anchor="start" x="710.5" y="-158.8" font-family="Times,serif" font-size="14.00">last_name :character varying</text>
</g>
<!-- Owner -->
<g id="node6" class="node"><title>Owner</title>
<path fill="none" stroke="black" d="M496,-143.5C496,-143.5 672,-143.5 672,-143.5 678,-143.5 684,-149.5 684,-155.5 684,-155.5 684,-222.5 684,-222.5 684,-228.5 678,-234.5 672,-234.5 672,-234.5 496,-234.5 496,-234.5 490,-234.5 484,-228.5 484,-222.5 484,-222.5 484,-155.5 484,-155.5 484,-149.5 490,-143.5 496,-143.5"/>
<text text-anchor="middle" x="584" y="-219.3" font-family="Times,serif" font-size="14.00">Owner</text>
<polyline fill="none" stroke="black" points="484,-211.5 684,-211.5 "/>
<text text-anchor="start" x="492" y="-196.3" font-family="Times,serif" font-size="14.00">first_name :character varying</text>
<text text-anchor="start" x="492" y="-181.3" font-family="Times,serif" font-size="14.00">last_name :character varying</text>
<text text-anchor="start" x="492" y="-166.3" font-family="Times,serif" font-size="14.00">email :character varying</text>
<text text-anchor="start" x="492" y="-151.3" font-family="Times,serif" font-size="14.00">phone_number :character varying</text>
</g>
<!-- Owner&#45;&gt;Patient -->
<g id="edge2" class="edge"><title>Owner&#45;&gt;Patient</title>
<path fill="none" stroke="#4c65ba" d="M584,-135.129C584,-124.322 584,-112.925 584,-102.044"/>
<ellipse fill="none" stroke="#4c65ba" cx="584" cy="-139.387" rx="4" ry="4"/>
<polygon fill="#4c65ba" stroke="#4c65ba" points="584,-101.807 588.5,-91.807 584,-96.807 584,-91.807 584,-91.807 584,-91.807 584,-96.807 579.5,-91.8071 584,-101.807 584,-101.807"/>
</g>
</g>
</svg>
